<svg width="452" height="303" viewBox="0 0 452 303" fill="none" xmlns="http://www.w3.org/2000/svg">
<path opacity="0.0654018" d="M59.6 0.399988C78.1333 0.399988 94.0667 6.26666 107.4 18L89.2 37C84.1333 33.4 79.5333 30.8 75.4 29.2C71.4 27.4667 66.8 26.6 61.6 26.6C51.6 26.6 43.7333 30.4667 38 38.2C32.4 45.9333 29.6 57.7333 29.6 73.6C29.6 85.2 30.5333 94.4 32.4 101.2C34.2667 107.867 37.0667 112.667 40.8 115.6C44.6667 118.533 49.6 120 55.6 120C61.6 120 67.0667 118.733 72 116.2V87.6H56.2L52.6 62.2H107.8V131.4C100.6 136.2 92.4667 139.933 83.4 142.6C74.3333 145.267 65.4 146.6 56.6 146.6C13.1333 146.6 -8.6 122.2 -8.6 73.4C-8.6 58.2 -5.66667 45.1333 0.2 34.2C6.2 23.1333 14.3333 14.7333 24.6 9C34.8667 3.26666 46.5333 0.399988 59.6 0.399988ZM184.883 0.399988C205.016 0.399988 220.683 6.79999 231.883 19.6C243.083 32.4 248.683 50.3333 248.683 73.4C248.683 88.4667 246.149 101.533 241.083 112.6C236.149 123.533 228.883 131.933 219.283 137.8C209.683 143.667 198.216 146.6 184.883 146.6C164.749 146.6 149.083 140.2 137.883 127.4C126.816 114.6 121.283 96.6 121.283 73.4C121.283 58.3333 123.749 45.3333 128.683 34.4C133.749 23.4667 141.016 15.0667 150.483 9.19999C160.083 3.33332 171.549 0.399988 184.883 0.399988ZM184.883 27C176.216 27 169.816 30.6 165.683 37.8C161.683 45 159.683 56.8667 159.683 73.4C159.683 89.9333 161.749 101.867 165.883 109.2C170.016 116.4 176.349 120 184.883 120C193.683 120 200.083 116.4 204.083 109.2C208.083 102 210.083 90.0667 210.083 73.4C210.083 56.8667 208.083 45 204.083 37.8C200.083 30.6 193.683 27 184.883 27ZM44.8 156.4C55.3333 156.4 64.6 157.933 72.6 161C80.7333 164.067 88 168.667 94.4 174.8L77.8 194.4C68.2 186.8 58.1333 183 47.6 183C42.1333 183 37.9333 184.067 35 186.2C32.2 188.2 30.8 191.067 30.8 194.8C30.8 197.467 31.5333 199.667 33 201.4C34.4667 203.133 36.9333 204.8 40.4 206.4C43.8667 208 49.3333 210 56.8 212.4C71.0667 216.933 81.4667 222.667 88 229.6C94.6667 236.4 98 245.867 98 258C98 266.8 95.7333 274.6 91.2 281.4C86.6667 288.067 80.0667 293.267 71.4 297C62.8667 300.733 52.8 302.6 41.2 302.6C19.0667 302.6 1 295.867 -13 282.4L5.2 262.2C16.2667 271.267 27.8 275.8 39.8 275.8C46.0667 275.8 50.9333 274.467 54.4 271.8C57.8667 269 59.6 265.333 59.6 260.8C59.6 257.6 58.9333 255 57.6 253C56.2667 250.867 53.8667 249 50.4 247.4C47.0667 245.667 42.1333 243.8 35.6 241.8C19.8667 236.867 8.8 230.933 2.4 224C-4 217.067 -7.2 208.333 -7.2 197.8C-7.2 189.533 -5 182.267 -0.6 176C3.93333 169.733 10.1333 164.933 18 161.6C26 158.133 34.9333 156.4 44.8 156.4ZM222.816 252.4C222.816 262 220.682 270.6 216.416 278.2C212.282 285.8 206.016 291.8 197.616 296.2C189.216 300.467 178.949 302.6 166.816 302.6C148.416 302.6 134.482 298.133 125.016 289.2C115.549 280.133 110.816 267.867 110.816 252.4V160H147.816V251.2C147.816 259.6 149.282 265.8 152.216 269.8C155.282 273.667 160.149 275.6 166.816 275.6C173.482 275.6 178.282 273.6 181.216 269.6C184.149 265.6 185.616 259.467 185.616 251.2V160H222.816V252.4ZM289.508 247.8H279.308V299H242.308V160H290.508C310.108 160 324.708 163.533 334.308 170.6C344.041 177.667 348.908 188.533 348.908 203.2C348.908 212 346.841 219.333 342.708 225.2C338.708 231.067 332.241 236.333 323.308 241L357.908 299H316.708L289.508 247.8ZM279.308 222.6H291.708C304.508 222.6 310.908 216.133 310.908 203.2C310.908 197.2 309.108 192.8 305.508 190C302.041 187.2 296.774 185.8 289.708 185.8H279.308V222.6ZM366.331 299V160H451.731L447.931 186.2H403.331V219.6H442.531V245.8H403.331V299H366.331Z" fill="white"/>
</svg>
