<svg width="45" height="256" viewBox="0 0 45 256" fill="none" xmlns="http://www.w3.org/2000/svg">
<path d="M0.220001 122.36C0.220001 119.2 0.680001 116.42 1.6 114.02C2.52 111.58 3.9 109.4 5.74 107.48L11.62 112.46C9.34 115.34 8.2 118.36 8.2 121.52C8.2 123.16 8.52 124.42 9.16 125.3C9.76 126.14 10.62 126.56 11.74 126.56C12.54 126.56 13.2 126.34 13.72 125.9C14.24 125.46 14.74 124.72 15.22 123.68C15.7 122.64 16.3 121 17.02 118.76C18.38 114.48 20.1 111.36 22.18 109.4C24.22 107.4 27.06 106.4 30.7 106.4C33.34 106.4 35.68 107.08 37.72 108.44C39.72 109.8 41.28 111.78 42.4 114.38C43.52 116.94 44.08 119.96 44.08 123.44C44.08 130.08 42.06 135.5 38.02 139.7L31.96 134.24C34.68 130.92 36.04 127.46 36.04 123.86C36.04 121.98 35.64 120.52 34.84 119.48C34 118.44 32.9 117.92 31.54 117.92C30.58 117.92 29.8 118.12 29.2 118.52C28.56 118.92 28 119.64 27.52 120.68C27 121.68 26.44 123.16 25.84 125.12C24.36 129.84 22.58 133.16 20.5 135.08C18.42 137 15.8 137.96 12.64 137.96C10.16 137.96 7.98 137.3 6.1 135.98C4.22 134.62 2.78 132.76 1.78 130.4C0.740002 128 0.220001 125.32 0.220001 122.36Z" fill="white"/>
<path d="M29.02 68.9553C31.9 68.9553 34.48 69.5953 36.76 70.8753C39.04 72.1153 40.84 73.9953 42.16 76.5153C43.44 79.0353 44.08 82.1153 44.08 85.7553C44.08 91.2753 42.74 95.4553 40.06 98.2953C37.34 101.135 33.66 102.555 29.02 102.555H1.3L1.3 91.4553H28.66C31.18 91.4553 33.04 91.0153 34.24 90.1353C35.4 89.2153 35.98 87.7553 35.98 85.7553C35.98 83.7553 35.38 82.3153 34.18 81.4353C32.98 80.5553 31.14 80.1153 28.66 80.1153H1.3L1.3 68.9553H29.02Z" fill="white"/>
<path d="M27.64 48.9477V52.0077H43V63.1077H1.3L1.3 48.6477C1.3 42.7677 2.36 38.3877 4.48 35.5077C6.6 32.5877 9.86 31.1277 14.26 31.1277C16.9 31.1277 19.1 31.7477 20.86 32.9877C22.62 34.1877 24.2 36.1277 25.6 38.8077L43 28.4277V40.7877L27.64 48.9477ZM20.08 52.0077V48.2877C20.08 44.4477 18.14 42.5277 14.26 42.5277C12.46 42.5277 11.14 43.0677 10.3 44.1477C9.46 45.1877 9.04 46.7677 9.04 48.8877V52.0077H20.08Z" fill="white"/>
<path d="M43 25.9006H1.3L1.3 0.28064L9.16 1.42064L9.16 14.8006H19.18V3.04063H27.04V14.8006H43V25.9006Z" fill="white"/>
<path d="M0.220001 234.92C0.220001 229.36 1.98 224.58 5.5 220.58L11.2 226.04C10.12 227.56 9.34 228.94 8.86001 230.18C8.34 231.38 8.08 232.76 8.08 234.32C8.08 237.32 9.24 239.68 11.56 241.4C13.88 243.08 17.42 243.92 22.18 243.92C25.66 243.92 28.42 243.64 30.46 243.08C32.46 242.52 33.9 241.68 34.78 240.56C35.66 239.4 36.1 237.92 36.1 236.12C36.1 234.32 35.72 232.68 34.96 231.2H26.38V235.94L18.76 237.02L18.76 220.46H39.52C40.96 222.62 42.08 225.06 42.88 227.78C43.68 230.5 44.08 233.18 44.08 235.82C44.08 248.86 36.76 255.38 22.12 255.38C17.56 255.38 13.64 254.5 10.36 252.74C7.04 250.94 4.52 248.5 2.8 245.42C1.08 242.34 0.220001 238.84 0.220001 234.92Z" fill="white"/>
<path d="M0.220001 197.335C0.220001 191.295 2.14 186.595 5.98 183.235C9.82 179.875 15.2 178.195 22.12 178.195C26.64 178.195 30.56 178.955 33.88 180.475C37.16 181.955 39.68 184.135 41.44 187.015C43.2 189.895 44.08 193.335 44.08 197.335C44.08 203.375 42.16 208.075 38.32 211.435C34.48 214.755 29.08 216.415 22.12 216.415C17.6 216.415 13.7 215.675 10.42 214.195C7.14 212.675 4.62 210.495 2.86 207.655C1.1 204.775 0.220001 201.335 0.220001 197.335ZM8.2 197.335C8.2 199.935 9.28 201.855 11.44 203.095C13.6 204.295 17.16 204.895 22.12 204.895C27.08 204.895 30.66 204.275 32.86 203.035C35.02 201.795 36.1 199.895 36.1 197.335C36.1 194.695 35.02 192.775 32.86 191.575C30.7 190.375 27.12 189.775 22.12 189.775C17.16 189.775 13.6 190.375 11.44 191.575C9.28 192.775 8.2 194.695 8.2 197.335Z" fill="white"/>
</svg>
