<svg width="500" height="87" viewBox="0 0 587 147" fill="none" xmlns="http://www.w3.org/2000/svg">
<path opacity="0.02" d="M59.8 -1.04904e-05L56 28.2H23.2V139H-13.8V28.2H-48.6V-1.04904e-05H59.8ZM117.375 87.8H107.175V139H70.175V-1.04904e-05H118.375C137.975 -1.04904e-05 152.575 3.53333 162.175 10.6C171.908 17.6667 176.775 28.5333 176.775 43.2C176.775 52 174.708 59.3333 170.575 65.2C166.575 71.0667 160.108 76.3333 151.175 81L185.775 139H144.575L117.375 87.8ZM107.175 62.6H119.575C132.375 62.6 138.775 56.1333 138.775 43.2C138.775 37.2 136.975 32.8 133.375 30C129.908 27.2 124.642 25.8 117.575 25.8H107.175V62.6ZM267.198 139L260.998 110.6H224.198L217.998 139H179.598L220.798 -1.04904e-05H265.198L306.398 139H267.198ZM229.998 84.2H255.198L242.598 26.4L229.998 84.2ZM417.628 -1.04904e-05L380.828 139H333.628L295.028 -1.04904e-05H334.028L357.828 112L379.828 -1.04904e-05H417.628ZM512.867 -1.04904e-05L509.067 26.2H461.667V55.8H503.067V81.2H461.667V112.8H512.267V139H424.667V-1.04904e-05H512.867ZM566.355 -1.04904e-05V110.2H619.755L615.755 139H529.355V-1.04904e-05H566.355Z" fill="white"/>
</svg>
